<svg xmlns="http://www.w3.org/2000/svg" width="1200" height="630" viewBox="0 0 1200 630" role="img" aria-labelledby="title desc">
  <title id="title">ConverseAI social sharing image</title>
  <desc id="desc">Branded ConverseAI Open Graph image for shared links.</desc>
  <defs>
    <linearGradient id="bg" x1="0" y1="0" x2="1" y2="1">
      <stop offset="0" stop-color="#130826"/>
      <stop offset="0.48" stop-color="#30105f"/>
      <stop offset="1" stop-color="#7c1fff"/>
    </linearGradient>
    <linearGradient id="accent" x1="0" y1="0" x2="1" y2="1">
      <stop offset="0" stop-color="#9d00ff"/>
      <stop offset="1" stop-color="#d90086"/>
    </linearGradient>
    <linearGradient id="accent2" x1="0" y1="0" x2="1" y2="1">
      <stop offset="0" stop-color="#9d00ff"/>
      <stop offset="1" stop-color="#531def"/>
    </linearGradient>
    <radialGradient id="glow" cx="70%" cy="20%" r="65%">
      <stop offset="0" stop-color="#ff4fd8" stop-opacity="0.34"/>
      <stop offset="0.55" stop-color="#7c3aed" stop-opacity="0.2"/>
      <stop offset="1" stop-color="#130826" stop-opacity="0"/>
    </radialGradient>
    <filter id="shadow" x="-20%" y="-20%" width="140%" height="140%">
      <feDropShadow dx="0" dy="24" stdDeviation="28" flood-color="#05000f" flood-opacity="0.35"/>
    </filter>
  </defs>

  <rect width="1200" height="630" fill="url(#bg)"/>
  <rect width="1200" height="630" fill="url(#glow)"/>
  <circle cx="1020" cy="90" r="220" fill="#ffffff" opacity="0.06"/>
  <circle cx="1040" cy="610" r="300" fill="#d90086" opacity="0.12"/>
  <circle cx="120" cy="520" r="210" fill="#531def" opacity="0.18"/>
  <path d="M0 510 C220 420 395 640 620 510 S970 395 1200 470 L1200 630 L0 630 Z" fill="#ffffff" opacity="0.06"/>

  <g transform="translate(88 78)">
    <g transform="scale(0.72)">
      <path fill="url(#accent)" d="M164.7,51.3h-9.1v43.4c0,9.4-7.6,17-17,17h-11c-.7,0-1.4,0-2.1,0h-33.2c1.6,7.7,8.5,13.5,16.7,13.5h36l15.8,15.5c1.1,1.1,2.5,1.6,4,1.6s1.5-.1,2.2-.5c2.1-.9,3.5-2.9,3.5-5.2v-12.4c6.7-2.3,11.5-8.6,11.5-16.1v-39.9c0-9.4-7.7-17-17-17Z"/>
      <path fill="url(#accent2)" d="M45,11c-9.4,0-17,7.6-17,17v59.2c0,9,7,16.4,15.9,17v17.9c0,2.3,1.4,4.4,3.5,5.3.7.3,1.5.4,2.2.4,1.4,0,2.9-.6,4-1.6l22.3-22h54.6c9.4,0,17-7.6,17-17V28c0-9.4-7.6-17-17-17H45Z"/>
      <text x="55" y="91" fill="#fff" font-family="Inter, Arial, sans-serif" font-size="58" font-weight="800">AI</text>
    </g>
    <text x="152" y="58" fill="#ffffff" font-family="Inter, Arial, sans-serif" font-size="48" font-weight="800" letter-spacing="-1.8">ConverseAI</text>
  </g>

  <g transform="translate(88 215)">
    <text x="0" y="0" fill="#ffffff" font-family="Inter, Arial, sans-serif" font-size="76" font-weight="850" letter-spacing="-3.3">
      AI conversations
    </text>
    <text x="0" y="86" fill="#ffffff" font-family="Inter, Arial, sans-serif" font-size="76" font-weight="850" letter-spacing="-3.3">
      that feel human
    </text>
    <text x="3" y="151" fill="#eee7ff" font-family="Inter, Arial, sans-serif" font-size="30" font-weight="500" letter-spacing="-0.35">
      Automate, engage, and support customers with intelligent chatbots and real-time messaging.
    </text>
  </g>

  <g transform="translate(92 485)">
    <rect x="0" y="0" rx="30" ry="30" width="258" height="66" fill="#ffffff" opacity="0.14"/>
    <text x="32" y="43" fill="#ffffff" font-family="Inter, Arial, sans-serif" font-size="24" font-weight="700">Customer Support</text>
    <rect x="282" y="0" rx="30" ry="30" width="210" height="66" fill="#ffffff" opacity="0.14"/>
    <text x="314" y="43" fill="#ffffff" font-family="Inter, Arial, sans-serif" font-size="24" font-weight="700">Live Chat</text>
    <rect x="516" y="0" rx="30" ry="30" width="250" height="66" fill="#ffffff" opacity="0.14"/>
    <text x="548" y="43" fill="#ffffff" font-family="Inter, Arial, sans-serif" font-size="24" font-weight="700">WhatsApp AI</text>
  </g>

  <g transform="translate(806 138)" filter="url(#shadow)">
    <rect x="0" y="0" width="300" height="348" rx="36" fill="#ffffff" opacity="0.97"/>
    <circle cx="68" cy="70" r="22" fill="url(#accent2)"/>
    <rect x="104" y="54" width="120" height="16" rx="8" fill="#211333" opacity="0.86"/>
    <rect x="104" y="82" width="82" height="12" rx="6" fill="#7c3aed" opacity="0.35"/>
    <rect x="42" y="133" width="190" height="46" rx="23" fill="#f0e8ff"/>
    <rect x="82" y="200" width="176" height="46" rx="23" fill="url(#accent)"/>
    <rect x="42" y="267" width="150" height="46" rx="23" fill="#f0e8ff"/>
    <circle cx="222" cy="290" r="8" fill="#9d00ff" opacity="0.72"/>
    <circle cx="246" cy="290" r="8" fill="#9d00ff" opacity="0.52"/>
    <circle cx="270" cy="290" r="8" fill="#9d00ff" opacity="0.32"/>
  </g>
</svg>
