<svg xmlns="http://www.w3.org/2000/svg" xml:space="preserve" width="213" height="43" style="shape-rendering:geometricPrecision;text-rendering:geometricPrecision;image-rendering:optimizeQuality;fill-rule:evenodd;clip-rule:evenodd" version="1.1" viewBox="0 0 207.03 41.92"><defs><style type="text/css">.fil0,.fil1{fill:#94733a;fill-rule:nonzero}.fil0{fill:#39454d}</style></defs><g id="Layer_x0020_1"><g id="_985553752"><path d="M0 1.44V.42c3.08.09 4.9.14 5.46.14.59 0 1.45-.01 2.57-.04C9.15.49 9.98.48 10.51.48c1.35 0 2.41.17 3.17.52.76.35 1.36.9 1.82 1.65.47.76.7 1.6.7 2.53 0 .8-.17 1.56-.49 2.3-.34.73-.78 1.36-1.32 1.87-.36.33-.93.7-1.71 1.09.62 1.07 1.53 2.58 2.72 4.53.88 1.43 1.45 2.29 1.72 2.58.27.28.56.5.87.65.48.22 1.34.43 2.61.63v1.01c-1.55-.09-2.81-.14-3.79-.14-1.02 0-2.29.05-3.79.14-1.12-2.57-2.54-5.5-4.28-8.8-.53-.02-1.08-.06-1.65-.11l.06 5.7c.01.7.07 1.13.17 1.3.1.17.24.29.42.37.13.06.94.24 2.43.53v1.01c-2.12-.09-3.83-.14-5.11-.14-1.27 0-2.95.05-5.06.14v-1.01c1.55-.29 2.42-.5 2.62-.66.2-.15.32-.46.38-.91.03-.25.04-2.59.05-7.02l-.01-4.08c0-1.91-.03-3.06-.1-3.46-.05-.28-.18-.49-.38-.63-.19-.14-.84-.31-1.94-.5L0 1.44zm7.1 7.95c.46.02.8.03 1.02.03 1.27 0 2.21-.31 2.82-.92.61-.6.91-1.53.91-2.77 0-1.17-.29-2.06-.86-2.68-.58-.61-1.36-.92-2.34-.92-.4 0-.92.03-1.56.08l.01 7.18zm15.86-7.96V.42c2.2.09 4.59.14 7.17.14 2.99 0 6.08-.05 9.25-.14.03 1.92.15 3.58.37 4.99h-1.18c-.1-.29-.18-.52-.23-.67-.45-1.3-.8-2.06-1.06-2.27-.26-.21-.84-.31-1.74-.31h-5.27c-.06 1.53-.1 3.77-.12 6.69l2.39.03c1.25 0 2.02-.12 2.31-.36.29-.24.59-1.05.92-2.44h1.15c-.1 1.34-.14 2.52-.14 3.54 0 .98.04 2.2.14 3.66h-1.15c-.26-1.47-.51-2.31-.75-2.53-.23-.22-.96-.33-2.16-.33h-2.7v7.65h5.47c.61 0 1.01-.03 1.21-.11.32-.12.61-.33.88-.63.56-.62 1.21-1.59 1.97-2.93h1.2c-.52 1.51-1.09 3.32-1.7 5.44-3.12-.09-6.37-.14-9.76-.14-1.55 0-3.7.05-6.47.14v-1.01c1.51-.28 2.36-.5 2.58-.66.3-.21.45-.74.45-1.59v-.46l.05-5.42V6.32l-.05-2.03c0-.97-.05-1.58-.15-1.82-.1-.24-.29-.42-.58-.56-.28-.14-1.05-.3-2.3-.48zm33.22 18.41v-1.01c1.11-.2 1.75-.36 1.93-.5.17-.12.26-.29.26-.52 0-.12-.03-.27-.08-.44-.15-.38-.62-1.53-1.42-3.44-1.28-.02-2.34-.03-3.19-.03-.7 0-1.87.01-3.5.03-1.02 2.39-1.54 3.7-1.54 3.93 0 .22.08.38.22.48.15.11.79.27 1.94.49v1.01c-1.15-.09-2.25-.14-3.3-.14-1.13 0-2.29.05-3.45.14v-1.01c.82-.17 1.38-.37 1.69-.59.21-.14.4-.36.58-.66.35-.57 1.42-2.8 3.18-6.68 1.12-2.46 2.72-6.09 4.8-10.9h1.09c.85 2.14 2.61 6.15 5.28 12.01 1.48 3.26 2.36 5.11 2.65 5.56.2.31.4.53.6.66.19.12.82.32 1.87.6v1.01c-1.61-.09-3.11-.14-4.49-.14-1.37 0-3.07.05-5.12.14zm-2.6-13.91-2.75 6.43h5.42l-2.67-6.43zm15.16-4.49V.42c2.13.09 3.89.14 5.27.14 1.06 0 2.52-.02 4.4-.07C79.77.44 80.9.42 81.82.42c1.71 0 3.07.22 4.07.66 1.39.6 2.48 1.53 3.27 2.78.79 1.25 1.18 2.87 1.18 4.86 0 2.21-.51 4.17-1.54 5.89-1.03 1.73-2.49 3.07-4.35 4.04-1.57.81-3.46 1.22-5.69 1.22-.21 0-1.06-.03-2.54-.07-1.49-.05-2.33-.07-2.51-.07-.64 0-2.29.04-4.97.14v-1.02l.58-.1c1.22-.21 1.93-.41 2.13-.59.21-.18.34-.46.37-.81.04-.53.06-3.3.06-8.31 0-3.68-.04-5.76-.11-6.22-.05-.33-.17-.55-.35-.7-.18-.15-.88-.33-2.1-.55l-.58-.13zm7.37 16.58c1.1.18 2.03.28 2.77.28 2.1 0 3.68-.62 4.75-1.86 1.36-1.59 2.03-3.89 2.03-6.91 0-2.59-.6-4.56-1.8-5.9-.97-1.09-2.5-1.64-4.58-1.64-.87 0-1.93.08-3.17.25-.09 1.43-.14 4.06-.14 7.93 0 2.22.05 4.84.14 7.85zM104.57.42v1.01l-.51.08c-1.2.15-1.92.33-2.16.55-.24.22-.36.64-.36 1.27v.49l-.05 4.59.02 5.24.03 2.66c0 .79.04 1.28.12 1.48.07.2.21.35.4.45.32.17 1 .34 2 .51.12.01.28.04.51.08v1.01c-1.87-.09-3.51-.14-4.93-.14-1.35 0-3.13.05-5.36.14v-1.01c1.42-.27 2.2-.43 2.34-.48.21-.08.36-.2.47-.36.14-.21.21-.64.22-1.28.04-1.52.06-4.1.06-7.74l-.09-4.99v-.41c0-.73-.1-1.2-.31-1.41-.21-.21-.92-.42-2.12-.62-.14-.02-.34-.06-.59-.11V.42c2.34.09 4.1.14 5.27.14 1.25 0 2.93-.05 5.04-.14zm2.92 1.01V.42c2.53.09 4.52.14 5.95.14l4.6-.06c1.38 0 2.46.15 3.26.44.79.29 1.43.83 1.93 1.61.49.77.74 1.71.74 2.82 0 1.77-.61 3.23-1.81 4.37-1.21 1.15-2.85 1.72-4.95 1.72-.65 0-1.45-.08-2.42-.23.04 2.44.06 3.85.06 4.24l-.05.99c0 .88.08 1.4.22 1.58.24.29 1.09.52 2.54.69.17.02.41.05.75.1v1.01c-2.62-.09-4.51-.14-5.67-.14-1.35 0-3.06.05-5.15.14v-1.01c1.61-.29 2.5-.5 2.69-.67.19-.17.3-.47.34-.92.03-.45.07-2.92.11-7.42l-.03-4.15c-.02-1.67-.06-2.65-.11-2.94-.05-.29-.17-.5-.35-.63-.24-.17-.92-.35-2.05-.56-.14-.02-.34-.05-.6-.11zm7.31 8.24c.56.05 1.04.08 1.44.08 1.05 0 1.88-.32 2.47-.97.59-.65.89-1.65.89-3.01 0-1.21-.29-2.12-.88-2.74-.58-.62-1.41-.93-2.48-.93-.41 0-.89.05-1.44.14v7.43zm12.77-8.23V.42c3.08.09 4.9.14 5.46.14.59 0 1.44-.01 2.56-.04 1.13-.03 1.95-.04 2.48-.04 1.36 0 2.42.17 3.17.52.76.35 1.37.9 1.83 1.65.46.76.69 1.6.69 2.53 0 .8-.16 1.56-.49 2.3-.33.73-.77 1.36-1.32 1.87-.35.33-.92.7-1.71 1.09.63 1.07 1.53 2.58 2.73 4.53.88 1.43 1.45 2.29 1.72 2.58.27.28.56.5.86.65.48.22 1.35.43 2.61.63v1.01c-1.55-.09-2.81-.14-3.78-.14-1.03 0-2.3.05-3.8.14-1.11-2.57-2.53-5.5-4.27-8.8-.53-.02-1.08-.06-1.65-.11l.05 5.7c.02.7.08 1.13.18 1.3.1.17.24.29.42.37.12.06.93.24 2.43.53v1.01c-2.13-.09-3.83-.14-5.12-.14-1.26 0-2.95.05-5.05.14v-1.01c1.55-.29 2.42-.5 2.62-.66.19-.15.32-.46.37-.91.03-.25.05-2.59.06-7.02l-.01-4.08c0-1.91-.04-3.06-.1-3.46-.06-.28-.18-.49-.38-.63s-.85-.31-1.95-.5l-.61-.13zm7.1 7.95c.46.02.79.03 1.01.03 1.28 0 2.22-.31 2.83-.92.6-.6.91-1.53.91-2.77 0-1.17-.29-2.06-.87-2.68-.57-.61-1.35-.92-2.34-.92-.4 0-.92.03-1.55.08l.01 7.18zM160.89.42v1.01l-.5.08c-1.2.15-1.92.33-2.16.55-.24.22-.36.64-.36 1.27v.49l-.06 4.59.03 5.24.03 2.66c0 .79.04 1.28.12 1.48.07.2.21.35.39.45.33.17 1 .34 2.01.51.11.01.28.04.5.08v1.01c-1.86-.09-3.51-.14-4.93-.14-1.34 0-3.13.05-5.35.14v-1.01c1.42-.27 2.2-.43 2.33-.48.21-.08.37-.2.48-.36.14-.21.21-.64.22-1.28.03-1.52.05-4.1.05-7.74l-.08-4.99v-.41c0-.73-.1-1.2-.31-1.41-.21-.21-.92-.42-2.13-.62-.13-.02-.33-.06-.59-.11V.42c2.35.09 4.11.14 5.28.14 1.25 0 2.92-.05 5.03-.14zm2.84 1.01V.42c1.25.09 2.42.14 3.5.14s2.36-.05 3.83-.14c1.11 1.5 4.46 5.66 10.05 12.47l-.06-7.49c-.05-1.82-.12-2.84-.21-3.04-.1-.21-.26-.37-.48-.48-.21-.12-.99-.27-2.31-.45V.42c1.47.09 2.74.14 3.84.14 1.05 0 2.4-.05 4.04-.14v1.01c-.29.06-.5.09-.63.11-1.07.16-1.71.34-1.92.54-.21.19-.33.6-.37 1.21-.07 1.28-.11 3.91-.11 7.89 0 2.56.04 5.48.11 8.77-.42.13-.84.28-1.25.45l-5.2-6.59-7.92-9.7.05 6.54.11 6.36c.03.48.08.78.14.9.07.13.16.22.28.3.2.12.85.28 1.95.48.13.02.32.07.58.14v1.01c-1.58-.09-2.84-.14-3.79-.14-.81 0-2.2.05-4.14.14v-1.01c.28-.06.49-.11.64-.14 1.04-.16 1.67-.32 1.86-.48.14-.1.22-.24.28-.43.06-.19.11-1.54.18-4.07.1-3.66.15-6.79.15-9.41 0-.87-.05-1.44-.15-1.68-.09-.25-.26-.44-.51-.57-.24-.14-.86-.3-1.86-.49-.15-.02-.38-.07-.68-.13zm43.3 4.76h-1.27c-.63-1.93-1.01-3.02-1.16-3.28-.14-.25-.33-.43-.59-.54-.26-.1-1.06-.16-2.43-.16h-1.33V15c0 1.58.06 2.54.17 2.87.05.18.18.32.4.42.21.11 1.03.28 2.46.54v1.01c-2.78-.09-4.56-.14-5.35-.14-1.08 0-2.72.05-4.94.14v-1.01c1.47-.26 2.33-.46 2.61-.6.18-.1.3-.27.37-.5.07-.24.11-1.19.11-2.87V2.21h-2.31c-.77 0-1.28.07-1.54.2-.24.13-.45.35-.62.7-.25.51-.59 1.54-1.04 3.08h-1.25c.16-1.34.26-2.27.3-2.78.04-.51.08-1.51.12-2.99 3.61.09 7.14.13 10.59.12 2.91-.03 5.01-.07 6.28-.12.01 1.77.15 3.69.42 5.77z" class="fil0"/><path d="M34.62 41.51c0 .14.11.27.27.27h.91c.14 0 .26-.13.26-.27v-3.68h3.74c.14 0 .27-.13.27-.27v-.77c0-.14-.13-.26-.27-.26h-3.74v-3.24h4.43c.15 0 .27-.12.27-.26v-.79c0-.14-.12-.27-.27-.27h-5.6c-.16 0-.27.13-.27.27v9.27zm16.62.27h.88c.17 0 .28-.11.33-.21.28-.64.57-1.27.85-1.92h4.58l.87 1.92c.06.13.15.21.32.21h.88c.21 0 .33-.18.24-.36l-4.27-9.43a.319.319 0 0 0-.24-.16h-.14c-.07 0-.19.07-.24.16L51 41.42c-.08.18.03.36.24.36zm2.61-3.33 1.71-3.84h.07l1.72 3.84h-3.5zm17.29 2.36c.22.21 1.3 1.11 3.01 1.11 1.82 0 3.12-1.19 3.12-2.65 0-1.71-1.38-2.48-3.01-3.13-1.16-.48-1.78-.97-1.78-1.77 0-.52.41-1.26 1.59-1.26.81 0 1.79.64 1.89.7.19.13.38.04.49-.14.11-.17.24-.36.35-.53.14-.21.03-.41-.09-.48-.14-.1-1.19-.83-2.59-.83-2.22 0-3.07 1.5-3.07 2.6 0 1.62 1.13 2.36 2.55 2.97 1.39.57 2.12 1.1 2.12 1.94 0 .72-.62 1.31-1.58 1.31-1.08 0-2.16-.9-2.24-.97-.16-.13-.35-.07-.48.11s-.24.39-.37.58c-.14.23-.04.33.09.44zm18.16.7c0 .14.13.27.27.27h.92c.15 0 .27-.13.27-.27v-4.04h5.12v4.04c0 .14.12.27.27.27h.92c.14 0 .27-.13.27-.27v-9.27c0-.14-.13-.27-.27-.27h-.92c-.15 0-.27.13-.27.27v3.91h-5.12v-3.91c0-.14-.12-.27-.27-.27h-.92c-.14 0-.27.13-.27.27v9.27zm20.85 0c0 .14.13.27.27.27h.92c.14 0 .27-.13.27-.27v-9.27c0-.14-.13-.27-.27-.27h-.92c-.14 0-.27.13-.27.27v9.27zm13.55-4.62c0 2.8 2.23 5.03 5.03 5.03 2.8 0 5.04-2.23 5.04-5.03 0-2.8-2.24-5.06-5.04-5.06s-5.03 2.26-5.03 5.06zm1.4 0c0-1.99 1.64-3.65 3.63-3.65 2 0 3.64 1.66 3.64 3.65 0 2-1.64 3.63-3.64 3.63-1.99 0-3.63-1.63-3.63-3.63zm20.77 4.62c0 .14.13.27.27.27h.88c.15 0 .26-.13.26-.27v-6.82h.02l6.08 7.23h.36c.14 0 .27-.11.27-.25v-9.43c0-.14-.13-.27-.27-.27h-.89c-.16 0-.27.13-.27.27v6.63h-.01l-6.08-7.04h-.35c-.14 0-.27.12-.27.26v9.42zm20.4-.7c.23.21 1.3 1.11 3.01 1.11 1.82 0 3.13-1.19 3.13-2.65 0-1.71-1.39-2.48-3.01-3.13-1.17-.48-1.78-.97-1.78-1.77 0-.52.4-1.26 1.58-1.26.81 0 1.79.64 1.89.7.2.13.38.04.49-.14.11-.17.24-.36.35-.53.14-.21.03-.41-.08-.48-.14-.1-1.19-.83-2.6-.83-2.22 0-3.06 1.5-3.06 2.6 0 1.62 1.12 2.36 2.55 2.97 1.38.57 2.11 1.1 2.11 1.94 0 .72-.61 1.31-1.58 1.31-1.08 0-2.16-.9-2.24-.97-.16-.13-.35-.07-.48.11s-.24.39-.36.58c-.14.23-.04.33.08.44z" class="fil1"/></g></g></svg>